<svg xmlns="http://www.w3.org/2000/svg" viewBox="0 0 100 35"><path d="M5.04 8.97c2.69 0 5.04.29 7.18 1.88 2.35 1.77 3.71 4.58 3.71 7.79s-1.33 6-3.88 7.79c-2.26 1.59-4.37 1.85-7.07 1.85H0V8.97h5.04ZM3.77 25.05h1.16c.96 0 3.04-.06 4.72-1.27 1.54-1.1 2.4-3.07 2.4-5.13s-.84-4-2.38-5.16c-1.56-1.16-3.48-1.27-4.75-1.27H3.76v12.83Zm18.13 1.36-5.97-10.66h4.11l3.88 7.13 3.48-7.13h4L21.29 34.93h-4l4.61-8.52Zm9.5-10.66h3.53v1.62c.67-.93 1.85-2.03 3.88-2.03 1.1 0 2.72.32 3.71 1.54.87 1.07.98 2.32.98 3.53v7.88h-3.53v-6.84c0-.7-.03-1.8-.67-2.46-.55-.58-1.3-.64-1.65-.64-.93 0-1.65.32-2.17 1.1-.52.81-.55 1.71-.55 2.43v6.4H31.4V15.74Zm23.09 0h3.53v12.54h-3.53v-1.62c-1.27 1.82-2.95 2.03-3.85 2.03-3.85 0-6.4-3.01-6.4-6.69s2.52-6.66 6.23-6.66c.96 0 2.84.17 4.03 2.03v-1.62Zm-6.6 6.26c0 2 1.45 3.56 3.48 3.56s3.48-1.56 3.48-3.56-1.45-3.53-3.48-3.53-3.48 1.54-3.48 3.53Zm10.86-6.26h3.53v1.42c1.33-1.68 2.98-1.82 3.74-1.82 2.64 0 3.65 1.65 3.97 2.29.61-.98 1.85-2.29 4.03-2.29 1.94 0 2.9.9 3.39 1.54.81 1.07.87 2.14.87 3.53v7.88h-3.53v-6.84c0-1.48-.32-2.14-.58-2.46-.46-.58-1.1-.64-1.45-.64-.96 0-1.56.43-1.94 1.1-.46.75-.49 1.77-.49 2.43v6.4h-3.53v-6.84c0-1.48-.32-2.14-.58-2.46-.46-.58-1.1-.64-1.45-.64-.96 0-1.56.43-1.94 1.1-.46.75-.49 1.77-.49 2.43v6.4h-3.53V15.74Zm22.36-6.78c1.16 0 2.11.96 2.11 2.11s-.96 2.11-2.11 2.11S79 12.23 79 11.08s.96-2.11 2.11-2.11Zm1.77 6.78v12.54h-3.53V15.75h3.53Z" style="stroke-width:0;fill:#e6e7e8"/><path d="m87.72 17.14 7.1-8.17h4.75l-8.17 8.92 8.6 10.4h-4.98l-6.87-8.66-.43.43v8.23h-3.77V8.97h3.77v8.17Z" style="stroke-width:0;fill:#4a70b6"/></svg>